<?xml version="1.0" encoding="UTF-8" standalone="no"?>
<!DOCTYPE svg PUBLIC "-//W3C//DTD SVG 1.1//EN"
 "http://www.w3.org/Graphics/SVG/1.1/DTD/svg11.dtd">
<!-- Generated by graphviz version 2.43.0 (0)
 -->
<!-- Title: G Pages: 1 -->
<svg width="1815pt" height="359pt"
 viewBox="0.00 0.00 1815.08 359.41" xmlns="http://www.w3.org/2000/svg" xmlns:xlink="http://www.w3.org/1999/xlink">
<g id="graph0" class="graph" transform="scale(1 1) rotate(0) translate(10.8 348.61)">
<title>G</title>
<polygon fill="white" stroke="transparent" points="-10.8,10.8 -10.8,-348.61 1804.28,-348.61 1804.28,10.8 -10.8,10.8"/>
<path fill="white" stroke="transparent" d="M1222.82,-10C1222.82,-10 1281.15,-10 1281.15,-10 1284.82,-10 1288.48,-13.67 1288.48,-17.33 1288.48,-17.33 1288.48,-24.67 1288.48,-24.67 1288.48,-28.33 1284.82,-32 1281.15,-32 1281.15,-32 1222.82,-32 1222.82,-32 1219.15,-32 1215.48,-28.33 1215.48,-24.67 1215.48,-24.67 1215.48,-17.33 1215.48,-17.33 1215.48,-13.67 1219.15,-10 1222.82,-10"/>
<text text-anchor="start" x="1220.48" y="-18.8" font-family="TeX Gyre Termes" font-size="9.00">Deterministic step</text>
<path fill="none" stroke="black" d="M1222.82,-10C1222.82,-10 1281.15,-10 1281.15,-10 1284.82,-10 1288.48,-13.67 1288.48,-17.33 1288.48,-17.33 1288.48,-24.67 1288.48,-24.67 1288.48,-28.33 1284.82,-32 1281.15,-32 1281.15,-32 1222.82,-32 1222.82,-32 1219.15,-32 1215.48,-28.33 1215.48,-24.67 1215.48,-24.67 1215.48,-17.33 1215.48,-17.33 1215.48,-13.67 1219.15,-10 1222.82,-10"/>
<path fill="#e6e6e6" stroke="transparent" d="M1301.82,-10C1301.82,-10 1358.15,-10 1358.15,-10 1361.82,-10 1365.48,-13.67 1365.48,-17.33 1365.48,-17.33 1365.48,-24.67 1365.48,-24.67 1365.48,-28.33 1361.82,-32 1358.15,-32 1358.15,-32 1301.82,-32 1301.82,-32 1298.15,-32 1294.48,-28.33 1294.48,-24.67 1294.48,-24.67 1294.48,-17.33 1294.48,-17.33 1294.48,-13.67 1298.15,-10 1301.82,-10"/>
<text text-anchor="start" x="1299.48" y="-18.8" font-family="TeX Gyre Termes" font-size="9.00">SAM 3 inference</text>
<path fill="none" stroke="black" d="M1301.82,-10C1301.82,-10 1358.15,-10 1358.15,-10 1361.82,-10 1365.48,-13.67 1365.48,-17.33 1365.48,-17.33 1365.48,-24.67 1365.48,-24.67 1365.48,-28.33 1361.82,-32 1358.15,-32 1358.15,-32 1301.82,-32 1301.82,-32 1298.15,-32 1294.48,-28.33 1294.48,-24.67 1294.48,-24.67 1294.48,-17.33 1294.48,-17.33 1294.48,-13.67 1298.15,-10 1301.82,-10"/>
<path fill="#c4c4c4" stroke="transparent" d="M1379.15,-11C1379.15,-11 1409.82,-11 1409.82,-11 1413.15,-11 1416.48,-14.33 1416.48,-17.67 1416.48,-17.67 1416.48,-24.33 1416.48,-24.33 1416.48,-27.67 1413.15,-31 1409.82,-31 1409.82,-31 1379.15,-31 1379.15,-31 1375.82,-31 1372.48,-27.67 1372.48,-24.33 1372.48,-24.33 1372.48,-17.67 1372.48,-17.67 1372.48,-14.33 1375.82,-11 1379.15,-11"/>
<text text-anchor="start" x="1377.48" y="-18.8" font-family="TeX Gyre Termes" font-size="9.00">LLM call</text>
<path fill="none" stroke="black" stroke-width="2" d="M1379.15,-11C1379.15,-11 1409.82,-11 1409.82,-11 1413.15,-11 1416.48,-14.33 1416.48,-17.67 1416.48,-17.67 1416.48,-24.33 1416.48,-24.33 1416.48,-27.67 1413.15,-31 1409.82,-31 1409.82,-31 1379.15,-31 1379.15,-31 1375.82,-31 1372.48,-27.67 1372.48,-24.33 1372.48,-24.33 1372.48,-17.67 1372.48,-17.67 1372.48,-14.33 1375.82,-11 1379.15,-11"/>
<text text-anchor="start" x="1423.48" y="-19.8" font-family="DejaVu Sans" font-size="9.00">◇</text>
<text text-anchor="start" x="1430.48" y="-19.8" font-family="TeX Gyre Termes" font-size="9.00"> branch point</text>
<text text-anchor="start" x="1483.48" y="-19.8" font-family="DejaVu Sans" font-size="9.00">●</text>
<text text-anchor="start" x="1491.48" y="-19.8" font-family="TeX Gyre Termes" font-size="9.00"> merge</text>
<text text-anchor="start" x="1522.48" y="-18.8" font-family="TeX Gyre Termes" font-size="9.00">solid edge: always taken</text>
<text text-anchor="start" x="1614.48" y="-19.8" font-family="TeX Gyre Termes" font-size="9.00">dashed edge: taken when its </text>
<text text-anchor="start" x="1716.48" y="-19.8" font-family="TeX Gyre Termes" font-style="italic" font-size="9.00">italic</text>
<text text-anchor="start" x="1734.48" y="-19.8" font-family="TeX Gyre Termes" font-size="9.00"> guard holds</text>
<g id="clust1" class="cluster">
<title>cluster_pre</title>
<path fill="white" stroke="#8a8a8a" stroke-width="0.6" d="M130.6,-190C130.6,-190 287.6,-190 287.6,-190 293.6,-190 299.6,-196 299.6,-202 299.6,-202 299.6,-264 299.6,-264 299.6,-270 293.6,-276 287.6,-276 287.6,-276 130.6,-276 130.6,-276 124.6,-276 118.6,-270 118.6,-264 118.6,-264 118.6,-202 118.6,-202 118.6,-196 124.6,-190 130.6,-190"/>
<text text-anchor="start" x="126.6" y="-264.2" font-family="TeX Gyre Termes" font-weight="bold" font-size="11.00">Preprocessing</text>
<text text-anchor="start" x="193.6" y="-264.2" font-family="TeX Gyre Termes" font-size="11.00"> &#160;</text>
<text text-anchor="start" x="200.6" y="-264.2" font-family="Nimbus Mono PS" font-size="9.00" fill="#555555">run_pipeline</text>
</g>
<g id="clust2" class="cluster">
<title>cluster_loop</title>
<path fill="white" stroke="#6a6a6a" stroke-width="0.7" stroke-dasharray="5,2" d="M328.6,-144C328.6,-144 1717.06,-144 1717.06,-144 1723.06,-144 1729.06,-150 1729.06,-156 1729.06,-156 1729.06,-306 1729.06,-306 1729.06,-312 1723.06,-318 1717.06,-318 1717.06,-318 328.6,-318 328.6,-318 322.6,-318 316.6,-312 316.6,-306 316.6,-306 316.6,-156 316.6,-156 316.6,-150 322.6,-144 328.6,-144"/>
<text text-anchor="start" x="324.6" y="-306.2" font-family="TeX Gyre Termes" font-weight="bold" font-size="11.00">Iterative refinement loop</text>
<text text-anchor="start" x="442.6" y="-306.2" font-family="TeX Gyre Termes" font-size="11.00">, </text>
<text text-anchor="start" x="449.6" y="-306.2" font-family="TeX Gyre Termes" font-style="italic" font-size="11.00">t</text>
<text text-anchor="start" x="453.6" y="-306.2" font-family="TeX Gyre Termes" font-size="11.00"> = 1, …, </text>
<text text-anchor="start" x="494.6" y="-306.2" font-family="TeX Gyre Termes" font-style="italic" font-size="11.00">T</text>
<text text-anchor="start" x="501.6" y="-306.2" font-family="TeX Gyre Termes" font-size="11.00"> &#160;</text>
<text text-anchor="start" x="508.6" y="-306.2" font-family="TeX Gyre Termes" font-size="9.00" fill="#555555">(</text>
<text text-anchor="start" x="512.6" y="-306.2" font-family="TeX Gyre Termes" font-style="italic" font-size="9.00" fill="#555555">T</text>
<text text-anchor="start" x="518.6" y="-306.2" font-family="TeX Gyre Termes" font-size="9.00" fill="#555555"> = </text>
<text text-anchor="start" x="528.6" y="-306.2" font-family="Nimbus Mono PS" font-size="8.00" fill="#555555">max_retries</text>
<text text-anchor="start" x="578.6" y="-306.2" font-family="TeX Gyre Termes" font-size="9.00" fill="#555555"> = 3)</text>
</g>
<g id="clust3" class="cluster">
<title>cluster_seg</title>
<path fill="#f7f7f7" stroke="#9a9a9a" stroke-width="0.6" d="M336.6,-152C336.6,-152 1099.6,-152 1099.6,-152 1105.6,-152 1111.6,-158 1111.6,-164 1111.6,-164 1111.6,-278 1111.6,-278 1111.6,-284 1105.6,-290 1099.6,-290 1099.6,-290 336.6,-290 336.6,-290 330.6,-290 324.6,-284 324.6,-278 324.6,-278 324.6,-164 324.6,-164 324.6,-158 330.6,-152 336.6,-152"/>
<text text-anchor="start" x="332.6" y="-278.2" font-family="TeX Gyre Termes" font-weight="bold" font-size="11.00">Segmentation</text>
<text text-anchor="start" x="396.6" y="-278.2" font-family="TeX Gyre Termes" font-size="11.00"> &#160;</text>
<text text-anchor="start" x="403.6" y="-278.2" font-family="Nimbus Mono PS" font-size="9.00" fill="#555555">sam3_segment</text>
</g>
<g id="clust4" class="cluster">
<title>cluster_adapt</title>
<path fill="#f7f7f7" stroke="#9a9a9a" stroke-width="0.6" d="M1278.6,-158C1278.6,-158 1709.06,-158 1709.06,-158 1715.06,-158 1721.06,-164 1721.06,-170 1721.06,-170 1721.06,-272 1721.06,-272 1721.06,-278 1715.06,-284 1709.06,-284 1709.06,-284 1278.6,-284 1278.6,-284 1272.6,-284 1266.6,-278 1266.6,-272 1266.6,-272 1266.6,-170 1266.6,-170 1266.6,-164 1272.6,-158 1278.6,-158"/>
<text text-anchor="start" x="1274.6" y="-272.2" font-family="TeX Gyre Termes" font-weight="bold" font-size="11.00">Prompt adaptation</text>
<text text-anchor="start" x="1362.6" y="-272.2" font-family="TeX Gyre Termes" font-size="11.00"> &#160;</text>
<text text-anchor="start" x="1369.6" y="-272.2" font-family="Nimbus Mono PS" font-size="9.00" fill="#555555">adapt_prompts</text>
</g>
<g id="clust5" class="cluster">
<title>cluster_out</title>
<path fill="white" stroke="#8a8a8a" stroke-width="0.6" d="M1276.6,-50C1276.6,-50 1593.6,-50 1593.6,-50 1599.6,-50 1605.6,-56 1605.6,-62 1605.6,-62 1605.6,-124 1605.6,-124 1605.6,-130 1599.6,-136 1593.6,-136 1593.6,-136 1276.6,-136 1276.6,-136 1270.6,-136 1264.6,-130 1264.6,-124 1264.6,-124 1264.6,-62 1264.6,-62 1264.6,-56 1270.6,-50 1276.6,-50"/>
<text text-anchor="start" x="1272.6" y="-124.2" font-family="TeX Gyre Termes" font-weight="bold" font-size="11.00">Output</text>
<text text-anchor="start" x="1306.6" y="-124.2" font-family="TeX Gyre Termes" font-size="11.00"> &#160;</text>
<text text-anchor="start" x="1313.6" y="-124.2" font-family="Nimbus Mono PS" font-size="9.00" fill="#555555">run_pipeline</text>
</g>
<!-- preprocess -->
<g id="node1" class="node">
<title>preprocess</title>
<path fill="none" stroke="#111111" stroke-width="0.8" d="M183.6,-243C183.6,-243 138.6,-243 138.6,-243 132.6,-243 126.6,-237 126.6,-231 126.6,-231 126.6,-215 126.6,-215 126.6,-209 132.6,-203 138.6,-203 138.6,-203 183.6,-203 183.6,-203 189.6,-203 195.6,-209 195.6,-215 195.6,-215 195.6,-231 195.6,-231 195.6,-237 189.6,-243 183.6,-243"/>
<text text-anchor="start" x="137.1" y="-231.2" font-family="TeX Gyre Termes" font-size="11.00">Preprocess</text>
<text text-anchor="start" x="134.1" y="-218.8" font-family="TeX Gyre Termes" font-size="9.00" fill="#3a3a3a">RGB; long side</text>
<text text-anchor="start" x="143.1" y="-208.8" font-family="TeX Gyre Termes" font-size="9.00" fill="#3a3a3a">≤ 2048 px</text>
</g>
<!-- build_prompts -->
<g id="node2" class="node">
<title>build_prompts</title>
<path fill="none" stroke="#111111" stroke-width="0.8" d="M279.6,-248C279.6,-248 224.6,-248 224.6,-248 218.6,-248 212.6,-242 212.6,-236 212.6,-236 212.6,-210 212.6,-210 212.6,-204 218.6,-198 224.6,-198 224.6,-198 279.6,-198 279.6,-198 285.6,-198 291.6,-204 291.6,-210 291.6,-210 291.6,-236 291.6,-236 291.6,-242 285.6,-248 279.6,-248"/>
<text text-anchor="start" x="220.1" y="-237.2" font-family="TeX Gyre Termes" font-size="11.00">Initial prompts</text>
<text text-anchor="start" x="246.6" y="-226.2" font-family="TeX Gyre Termes" font-style="italic" font-size="11.00">P</text>
<text text-anchor="start" x="253.6" y="-226.2" font-family="TeX Gyre Termes" baseline-shift="sub" font-size="11.00">1</text>
<text text-anchor="start" x="230.6" y="-213.8" font-family="TeX Gyre Termes" font-size="9.00" fill="#3a3a3a">6 exclude or</text>
<text text-anchor="start" x="236.1" y="-203.8" font-family="TeX Gyre Termes" font-size="9.00" fill="#3a3a3a">5 include</text>
</g>
<!-- preprocess&#45;&gt;build_prompts -->
<g id="edge2" class="edge">
<title>preprocess&#45;&gt;build_prompts</title>
<path fill="none" stroke="#111111" stroke-width="0.75" d="M195.75,-223C199.3,-223 202.95,-223 206.61,-223"/>
<polygon fill="#111111" stroke="#111111" stroke-width="0.75" points="212.33,-223 206.83,-225.48 209.58,-223 206.83,-223 206.83,-223 206.83,-223 209.58,-223 206.83,-220.53 212.33,-223 212.33,-223"/>
</g>
<!-- sam3_segment:select_branch -->
<g id="node3" class="node">
<title>sam3_segment:select_branch</title>
<polygon fill="white" stroke="#111111" stroke-width="0.8" points="344.6,-235 332.6,-223 344.6,-211 356.6,-223 344.6,-235"/>
</g>
<!-- build_prompts&#45;&gt;sam3_segment:select_branch -->
<g id="edge3" class="edge">
<title>build_prompts&#45;&gt;sam3_segment:select_branch</title>
<path fill="none" stroke="#111111" stroke-width="0.75" d="M291.74,-223C304,-223 316.91,-223 326.79,-223"/>
<polygon fill="#111111" stroke="#111111" stroke-width="0.75" points="332.51,-223 327.01,-225.48 329.76,-223 327.01,-223 327.01,-223 327.01,-223 329.76,-223 327.01,-220.53 332.51,-223 332.51,-223"/>
</g>
<!-- sam3_segment:infer_per_prompt -->
<g id="node4" class="node">
<title>sam3_segment:infer_per_prompt</title>
<path fill="none" stroke="#111111" stroke-width="0.8" d="M515.6,-222C515.6,-222 444.6,-222 444.6,-222 439.6,-222 434.6,-217 434.6,-212 434.6,-212 434.6,-202 434.6,-202 434.6,-197 439.6,-192 444.6,-192 444.6,-192 515.6,-192 515.6,-192 520.6,-192 525.6,-197 525.6,-202 525.6,-202 525.6,-212 525.6,-212 525.6,-217 520.6,-222 515.6,-222"/>
<text text-anchor="start" x="442.1" y="-210.2" font-family="TeX Gyre Termes" font-size="11.00">Per&#45;prompt query</text>
<text text-anchor="start" x="451.6" y="-198.8" font-family="TeX Gyre Termes" font-size="9.00" fill="#3a3a3a">for each </text>
<text text-anchor="start" x="482.6" y="-198.8" font-family="TeX Gyre Termes" font-style="italic" font-size="9.00" fill="#3a3a3a">p</text>
<text text-anchor="start" x="487.6" y="-198.8" font-family="TeX Gyre Termes" font-size="9.00" fill="#3a3a3a"> </text>
<text text-anchor="start" x="490.6" y="-198.8" font-family="TeX Gyre Termes Math" font-size="9.00" fill="#3a3a3a">∈</text>
<text text-anchor="start" x="497.6" y="-198.8" font-family="TeX Gyre Termes" font-size="9.00" fill="#3a3a3a"> </text>
<text text-anchor="start" x="500.6" y="-198.8" font-family="TeX Gyre Termes" font-style="italic" font-size="9.00" fill="#3a3a3a">P</text>
<text text-anchor="start" x="506.6" y="-198.8" font-family="TeX Gyre Termes" font-style="italic" baseline-shift="sub" font-size="9.00" fill="#3a3a3a">t</text>
</g>
<!-- sam3_segment:select_branch&#45;&gt;sam3_segment:infer_per_prompt -->
<g id="edge5" class="edge">
<title>sam3_segment:select_branch&#45;&gt;sam3_segment:infer_per_prompt</title>
<path fill="none" stroke="#111111" stroke-width="0.75" stroke-dasharray="5,2" d="M351.93,-218.3C355.47,-215.95 360.07,-213.33 364.6,-212 385.11,-206.01 408.57,-204.16 428.89,-204.04"/>
<polygon fill="#111111" stroke="#111111" stroke-width="0.75" points="434.53,-204.05 429.02,-206.52 431.78,-204.05 429.03,-204.04 429.03,-204.04 429.03,-204.04 431.78,-204.05 429.03,-201.57 434.53,-204.05 434.53,-204.05"/>
<text text-anchor="start" x="377.1" y="-215.4" font-family="TeX Gyre Termes" font-style="italic" font-size="9.50">otherwise</text>
</g>
<!-- sam3_segment:predict_pooled_top_k -->
<g id="node7" class="node">
<title>sam3_segment:predict_pooled_top_k</title>
<path fill="#e6e6e6" stroke="#111111" stroke-width="0.8" d="M599.6,-262C599.6,-262 545.6,-262 545.6,-262 539.6,-262 533.6,-256 533.6,-250 533.6,-250 533.6,-234 533.6,-234 533.6,-228 539.6,-222 545.6,-222 545.6,-222 599.6,-222 599.6,-222 605.6,-222 611.6,-228 611.6,-234 611.6,-234 611.6,-250 611.6,-250 611.6,-256 605.6,-262 599.6,-262"/>
<text text-anchor="start" x="554.6" y="-251.2" font-family="TeX Gyre Termes" font-size="11.00">SAM 3,</text>
<text text-anchor="start" x="544.6" y="-240.2" font-family="TeX Gyre Termes" font-size="11.00">pooled top&#45;</text>
<text text-anchor="start" x="594.6" y="-240.2" font-family="TeX Gyre Termes" font-style="italic" font-size="11.00">k</text>
<text text-anchor="start" x="540.6" y="-227.8" font-family="TeX Gyre Termes" font-size="9.00" fill="#3a3a3a">by detection score</text>
</g>
<!-- sam3_segment:select_branch&#45;&gt;sam3_segment:predict_pooled_top_k -->
<g id="edge4" class="edge">
<title>sam3_segment:select_branch&#45;&gt;sam3_segment:predict_pooled_top_k</title>
<path fill="none" stroke="#111111" stroke-width="0.75" stroke-dasharray="5,2" d="M355.9,-223.87C385.73,-226.37 473.48,-233.75 527.43,-238.29"/>
<polygon fill="#111111" stroke="#111111" stroke-width="0.75" points="533.19,-238.77 527.5,-240.78 530.45,-238.54 527.71,-238.31 527.71,-238.31 527.71,-238.31 530.45,-238.54 527.91,-235.84 533.19,-238.77 533.19,-238.77"/>
<text text-anchor="start" x="364.6" y="-241.4" font-family="TeX Gyre Termes" font-style="italic" font-size="9.50">include </text>
<text text-anchor="start" x="395.6" y="-241.4" font-family="TeX Gyre Termes Math" font-style="italic" font-size="9.50">∧</text>
<text text-anchor="start" x="402.6" y="-241.4" font-family="TeX Gyre Termes" font-style="italic" font-size="9.50"> </text>
<text text-anchor="start" x="405.6" y="-241.4" font-family="TeX Gyre Termes" font-style="italic" font-size="9.50">k</text>
<text text-anchor="start" x="410.6" y="-241.4" font-family="TeX Gyre Termes" font-style="italic" font-size="9.50"> &gt; 0</text>
<text text-anchor="start" x="378.1" y="-231.9" font-family="TeX Gyre Termes Math" font-style="italic" font-size="9.50">∧</text>
<text text-anchor="start" x="385.1" y="-231.9" font-family="TeX Gyre Termes" font-style="italic" font-size="9.50"> ¬tiled</text>
</g>
<!-- sam3_segment:predict_tiles_stitch -->
<g id="node5" class="node">
<title>sam3_segment:predict_tiles_stitch</title>
<path fill="#e6e6e6" stroke="#111111" stroke-width="0.8" d="M680.1,-202C680.1,-202 632.1,-202 632.1,-202 626.1,-202 620.1,-196 620.1,-190 620.1,-190 620.1,-172 620.1,-172 620.1,-166 626.1,-160 632.1,-160 632.1,-160 680.1,-160 680.1,-160 686.1,-160 692.1,-166 692.1,-172 692.1,-172 692.1,-190 692.1,-190 692.1,-196 686.1,-202 680.1,-202"/>
<text text-anchor="start" x="639.6" y="-190.2" font-family="TeX Gyre Termes" font-size="11.00">SAM 3</text>
<text text-anchor="start" x="639.6" y="-178.2" font-family="TeX Gyre Termes" font-size="11.00">on tiles</text>
<text text-anchor="start" x="627.1" y="-165.8" font-family="TeX Gyre Termes" font-size="9.00" fill="#3a3a3a">OR&#45;stitch masks</text>
</g>
<!-- sam3_segment:infer_per_prompt&#45;&gt;sam3_segment:predict_tiles_stitch -->
<g id="edge6" class="edge">
<title>sam3_segment:infer_per_prompt&#45;&gt;sam3_segment:predict_tiles_stitch</title>
<path fill="none" stroke="#111111" stroke-width="0.75" stroke-dasharray="5,2" d="M515.94,-191.99C521.75,-190 527.78,-188.22 533.6,-187 560.11,-181.44 590.54,-179.95 614.32,-179.84"/>
<polygon fill="#111111" stroke="#111111" stroke-width="0.75" points="619.9,-179.84 614.4,-182.31 617.15,-179.84 614.4,-179.84 614.4,-179.84 614.4,-179.84 617.15,-179.84 614.4,-177.36 619.9,-179.84 619.9,-179.84"/>
<text text-anchor="start" x="537.6" y="-190.4" font-family="TeX Gyre Termes" font-style="italic" font-size="9.50">max(</text>
<text text-anchor="start" x="556.6" y="-190.4" font-family="TeX Gyre Termes" font-style="italic" font-size="9.50">H</text>
<text text-anchor="start" x="563.6" y="-190.4" font-family="TeX Gyre Termes" font-style="italic" font-size="9.50">, </text>
<text text-anchor="start" x="568.6" y="-190.4" font-family="TeX Gyre Termes" font-style="italic" font-size="9.50">W</text>
<text text-anchor="start" x="577.6" y="-190.4" font-family="TeX Gyre Termes" font-style="italic" font-size="9.50">) &gt; τ</text>
<text text-anchor="start" x="596.6" y="-190.4" font-family="TeX Gyre Termes" font-style="italic" baseline-shift="sub" font-size="9.50">tile</text>
</g>
<!-- sam3_segment:predict_whole_image -->
<g id="node6" class="node">
<title>sam3_segment:predict_whole_image</title>
<path fill="#e6e6e6" stroke="#111111" stroke-width="0.8" d="M682.6,-246C682.6,-246 629.6,-246 629.6,-246 624.6,-246 619.6,-241 619.6,-236 619.6,-236 619.6,-226 619.6,-226 619.6,-221 624.6,-216 629.6,-216 629.6,-216 682.6,-216 682.6,-216 687.6,-216 692.6,-221 692.6,-226 692.6,-226 692.6,-236 692.6,-236 692.6,-241 687.6,-246 682.6,-246"/>
<text text-anchor="start" x="640.1" y="-234.2" font-family="TeX Gyre Termes" font-size="11.00">SAM 3</text>
<text text-anchor="start" x="627.1" y="-222.2" font-family="TeX Gyre Termes" font-size="11.00">on full image</text>
</g>
<!-- sam3_segment:infer_per_prompt&#45;&gt;sam3_segment:predict_whole_image -->
<g id="edge7" class="edge">
<title>sam3_segment:infer_per_prompt&#45;&gt;sam3_segment:predict_whole_image</title>
<path fill="none" stroke="#111111" stroke-width="0.75" stroke-dasharray="5,2" d="M525.89,-201.53C551.4,-199.77 583.74,-199.82 611.6,-207 616.99,-208.39 622.42,-210.6 627.54,-213.13"/>
<polygon fill="#111111" stroke="#111111" stroke-width="0.75" points="632.53,-215.75 626.51,-215.39 630.1,-214.48 627.66,-213.2 627.66,-213.2 627.66,-213.2 630.1,-214.48 628.81,-211.01 632.53,-215.75 632.53,-215.75"/>
<text text-anchor="start" x="554.1" y="-210.4" font-family="TeX Gyre Termes" font-style="italic" font-size="9.50">otherwise</text>
</g>
<!-- sam3_segment:union_masks -->
<g id="node8" class="node">
<title>sam3_segment:union_masks</title>
<path fill="none" stroke="#111111" stroke-width="0.8" d="M765.6,-228C765.6,-228 719.6,-228 719.6,-228 714.6,-228 709.6,-223 709.6,-218 709.6,-218 709.6,-208 709.6,-208 709.6,-203 714.6,-198 719.6,-198 719.6,-198 765.6,-198 765.6,-198 770.6,-198 775.6,-203 775.6,-208 775.6,-208 775.6,-218 775.6,-218 775.6,-223 770.6,-228 765.6,-228"/>
<text text-anchor="start" x="716.6" y="-216.2" font-family="TeX Gyre Termes" font-size="11.00">Mask union</text>
<text text-anchor="start" x="720.6" y="-204.8" font-family="TeX Gyre Termes" font-style="italic" font-size="9.00" fill="#3a3a3a">M</text>
<text text-anchor="start" x="728.6" y="-204.8" font-family="TeX Gyre Termes" font-size="9.00" fill="#3a3a3a"> = </text>
<text text-anchor="start" x="738.6" y="-204.8" font-family="TeX Gyre Termes Math" font-size="9.00" fill="#3a3a3a">∪</text>
<text text-anchor="start" x="745.6" y="-204.8" font-family="TeX Gyre Termes" font-style="italic" baseline-shift="sub" font-size="9.00" fill="#3a3a3a">p</text>
<text text-anchor="start" x="749.6" y="-204.8" font-family="TeX Gyre Termes" font-size="9.00" fill="#3a3a3a"> </text>
<text text-anchor="start" x="752.6" y="-204.8" font-family="TeX Gyre Termes" font-style="italic" font-size="9.00" fill="#3a3a3a">M</text>
<text text-anchor="start" x="760.6" y="-204.8" font-family="TeX Gyre Termes" font-style="italic" baseline-shift="sub" font-size="9.00" fill="#3a3a3a">p</text>
</g>
<!-- sam3_segment:predict_tiles_stitch&#45;&gt;sam3_segment:union_masks -->
<g id="edge8" class="edge">
<title>sam3_segment:predict_tiles_stitch&#45;&gt;sam3_segment:union_masks</title>
<path fill="none" stroke="#111111" stroke-width="0.75" d="M692.45,-194.39C696.3,-195.85 700.24,-197.34 704.12,-198.8"/>
<polygon fill="#111111" stroke="#111111" stroke-width="0.75" points="709.36,-200.79 703.34,-201.16 706.79,-199.82 704.22,-198.84 704.22,-198.84 704.22,-198.84 706.79,-199.82 705.1,-196.53 709.36,-200.79 709.36,-200.79"/>
</g>
<!-- sam3_segment:predict_whole_image&#45;&gt;sam3_segment:union_masks -->
<g id="edge9" class="edge">
<title>sam3_segment:predict_whole_image&#45;&gt;sam3_segment:union_masks</title>
<path fill="none" stroke="#111111" stroke-width="0.75" d="M692.94,-223.37C696.54,-222.6 700.2,-221.82 703.82,-221.05"/>
<polygon fill="#111111" stroke="#111111" stroke-width="0.75" points="709.46,-219.85 704.6,-223.41 706.77,-220.42 704.08,-220.99 704.08,-220.99 704.08,-220.99 706.77,-220.42 703.57,-218.57 709.46,-219.85 709.46,-219.85"/>
</g>
<!-- sam3_segment:postprocess_keep -->
<g id="node11" class="node">
<title>sam3_segment:postprocess_keep</title>
<path fill="none" stroke="#111111" stroke-width="0.8" d="M1091.6,-255C1091.6,-255 1037.6,-255 1037.6,-255 1031.6,-255 1025.6,-249 1025.6,-243 1025.6,-243 1025.6,-227 1025.6,-227 1025.6,-221 1031.6,-215 1037.6,-215 1037.6,-215 1091.6,-215 1091.6,-215 1097.6,-215 1103.6,-221 1103.6,-227 1103.6,-227 1103.6,-243 1103.6,-243 1103.6,-249 1097.6,-255 1091.6,-255"/>
<text text-anchor="start" x="1036.6" y="-243.2" font-family="TeX Gyre Termes" font-size="11.00">Post&#45;process</text>
<text text-anchor="start" x="1050.6" y="-230.8" font-family="TeX Gyre Termes" font-size="9.00" fill="#3a3a3a">closing,</text>
<text text-anchor="start" x="1032.6" y="-220.8" font-family="TeX Gyre Termes" font-size="9.00" fill="#3a3a3a">largest component</text>
</g>
<!-- sam3_segment:predict_pooled_top_k&#45;&gt;sam3_segment:postprocess_keep -->
<g id="edge14" class="edge">
<title>sam3_segment:predict_pooled_top_k&#45;&gt;sam3_segment:postprocess_keep</title>
<path fill="none" stroke="#111111" stroke-width="0.75" d="M611.63,-251.82C614.32,-252.29 616.99,-252.69 619.6,-253 651.82,-256.8 660.16,-253.21 692.6,-253 797.05,-252.33 823.31,-255.87 927.6,-250 958.6,-248.26 993.4,-244.38 1020.03,-241.01"/>
<polygon fill="#111111" stroke="#111111" stroke-width="0.75" points="1025.59,-240.3 1020.45,-243.45 1022.86,-240.65 1020.13,-241 1020.13,-241 1020.13,-241 1022.86,-240.65 1019.82,-238.54 1025.59,-240.3 1025.59,-240.3"/>
</g>
<!-- sam3_segment:color_priors -->
<g id="node9" class="node">
<title>sam3_segment:color_priors</title>
<path fill="none" stroke="#111111" stroke-width="0.8" d="M878.6,-224C878.6,-224 834.6,-224 834.6,-224 828.6,-224 822.6,-218 822.6,-212 822.6,-212 822.6,-184 822.6,-184 822.6,-178 828.6,-172 834.6,-172 834.6,-172 878.6,-172 878.6,-172 884.6,-172 890.6,-178 890.6,-184 890.6,-184 890.6,-212 890.6,-212 890.6,-218 884.6,-224 878.6,-224"/>
<text text-anchor="start" x="829.6" y="-212.2" font-family="TeX Gyre Termes" font-size="11.00">HSV colour</text>
<text text-anchor="start" x="843.6" y="-200.2" font-family="TeX Gyre Termes" font-size="11.00">priors</text>
<text text-anchor="start" x="836.1" y="-187.8" font-family="TeX Gyre Termes" font-size="9.00" fill="#3a3a3a">sky, yellow</text>
<text text-anchor="start" x="839.1" y="-177.8" font-family="TeX Gyre Termes" font-size="9.00" fill="#3a3a3a">(optional)</text>
</g>
<!-- sam3_segment:union_masks&#45;&gt;sam3_segment:color_priors -->
<g id="edge10" class="edge">
<title>sam3_segment:union_masks&#45;&gt;sam3_segment:color_priors</title>
<path fill="none" stroke="#111111" stroke-width="0.75" stroke-dasharray="5,2" d="M775.7,-208.7C788.48,-206.99 803.31,-205 816.69,-203.21"/>
<polygon fill="#111111" stroke="#111111" stroke-width="0.75" points="822.33,-202.46 817.21,-205.64 819.61,-202.82 816.88,-203.19 816.88,-203.19 816.88,-203.19 819.61,-202.82 816.55,-200.73 822.33,-202.46 822.33,-202.46"/>
<text text-anchor="start" x="783.6" y="-210.4" font-family="TeX Gyre Termes" font-style="italic" font-size="9.50">exclude</text>
</g>
<!-- sam3_segment:union_masks&#45;&gt;sam3_segment:postprocess_keep -->
<g id="edge11" class="edge">
<title>sam3_segment:union_masks&#45;&gt;sam3_segment:postprocess_keep</title>
<path fill="none" stroke="#111111" stroke-width="0.75" stroke-dasharray="5,2" d="M775.62,-221.88C789.88,-225.43 806.96,-229.11 822.6,-231 891.07,-239.28 971.26,-238.55 1019.7,-236.99"/>
<polygon fill="#111111" stroke="#111111" stroke-width="0.75" points="1025.45,-236.8 1020.04,-239.46 1022.7,-236.89 1019.95,-236.98 1019.95,-236.98 1019.95,-236.98 1022.7,-236.89 1019.87,-234.51 1025.45,-236.8 1025.45,-236.8"/>
<text text-anchor="start" x="898.6" y="-240.4" font-family="TeX Gyre Termes" font-style="italic" font-size="9.50">include</text>
</g>
<!-- sam3_segment:invert_to_keep -->
<g id="node10" class="node">
<title>sam3_segment:invert_to_keep</title>
<path fill="none" stroke="#111111" stroke-width="0.8" d="M979.6,-219C979.6,-219 945.6,-219 945.6,-219 940.6,-219 935.6,-214 935.6,-209 935.6,-209 935.6,-199 935.6,-199 935.6,-194 940.6,-189 945.6,-189 945.6,-189 979.6,-189 979.6,-189 984.6,-189 989.6,-194 989.6,-199 989.6,-199 989.6,-209 989.6,-209 989.6,-214 984.6,-219 979.6,-219"/>
<text text-anchor="start" x="949.6" y="-207.2" font-family="TeX Gyre Termes" font-size="11.00">Invert</text>
<text text-anchor="start" x="947.6" y="-195.8" font-family="TeX Gyre Termes" font-style="italic" font-size="9.00" fill="#3a3a3a">K</text>
<text text-anchor="start" x="954.6" y="-195.8" font-family="TeX Gyre Termes" font-size="9.00" fill="#3a3a3a"> = ¬</text>
<text text-anchor="start" x="970.6" y="-195.8" font-family="TeX Gyre Termes" font-style="italic" font-size="9.00" fill="#3a3a3a">M</text>
</g>
<!-- sam3_segment:color_priors&#45;&gt;sam3_segment:invert_to_keep -->
<g id="edge12" class="edge">
<title>sam3_segment:color_priors&#45;&gt;sam3_segment:invert_to_keep</title>
<path fill="none" stroke="#111111" stroke-width="0.75" d="M890.79,-199.91C903.27,-200.63 917.41,-201.45 929.76,-202.16"/>
<polygon fill="#111111" stroke="#111111" stroke-width="0.75" points="935.3,-202.48 929.66,-204.64 932.55,-202.32 929.81,-202.17 929.81,-202.17 929.81,-202.17 932.55,-202.32 929.95,-199.69 935.3,-202.48 935.3,-202.48"/>
</g>
<!-- sam3_segment:invert_to_keep&#45;&gt;sam3_segment:postprocess_keep -->
<g id="edge13" class="edge">
<title>sam3_segment:invert_to_keep&#45;&gt;sam3_segment:postprocess_keep</title>
<path fill="none" stroke="#111111" stroke-width="0.75" d="M989.61,-212.06C998.88,-214.94 1009.58,-218.25 1019.92,-221.46"/>
<polygon fill="#111111" stroke="#111111" stroke-width="0.75" points="1025.29,-223.12 1019.3,-223.86 1022.66,-222.31 1020.03,-221.49 1020.03,-221.49 1020.03,-221.49 1022.66,-222.31 1020.76,-219.13 1025.29,-223.12 1025.29,-223.12"/>
</g>
<!-- quality_gate -->
<g id="node12" class="node">
<title>quality_gate</title>
<path fill="none" stroke="#111111" stroke-width="0.8" d="M1185.6,-231C1185.6,-231 1140.6,-231 1140.6,-231 1134.6,-231 1128.6,-225 1128.6,-219 1128.6,-219 1128.6,-203 1128.6,-203 1128.6,-197 1134.6,-191 1140.6,-191 1140.6,-191 1185.6,-191 1185.6,-191 1191.6,-191 1197.6,-197 1197.6,-203 1197.6,-203 1197.6,-219 1197.6,-219 1197.6,-225 1191.6,-231 1185.6,-231"/>
<text text-anchor="start" x="1136.1" y="-219.2" font-family="TeX Gyre Termes" font-size="11.00">Quality gate</text>
<text text-anchor="start" x="1146.6" y="-206.8" font-family="TeX Gyre Termes" font-size="9.00" fill="#3a3a3a">coverage,</text>
<text text-anchor="start" x="1143.6" y="-196.8" font-family="TeX Gyre Termes" font-size="9.00" fill="#3a3a3a">sky checks</text>
</g>
<!-- sam3_segment:postprocess_keep&#45;&gt;quality_gate -->
<g id="edge15" class="edge">
<title>sam3_segment:postprocess_keep&#45;&gt;quality_gate</title>
<path fill="none" stroke="#111111" stroke-width="0.75" d="M1103.74,-225.51C1109.95,-223.97 1116.4,-222.37 1122.64,-220.81"/>
<polygon fill="#111111" stroke="#111111" stroke-width="0.75" points="1128.3,-219.41 1123.56,-223.13 1125.64,-220.07 1122.97,-220.73 1122.97,-220.73 1122.97,-220.73 1125.64,-220.07 1122.37,-218.33 1128.3,-219.41 1128.3,-219.41"/>
</g>
<!-- adapt_prompts:pick_fallback_sets -->
<g id="node13" class="node">
<title>adapt_prompts:pick_fallback_sets</title>
<path fill="none" stroke="#111111" stroke-width="0.8" d="M1316.6,-231C1316.6,-231 1286.6,-231 1286.6,-231 1280.6,-231 1274.6,-225 1274.6,-219 1274.6,-219 1274.6,-203 1274.6,-203 1274.6,-197 1280.6,-191 1286.6,-191 1286.6,-191 1316.6,-191 1316.6,-191 1322.6,-191 1328.6,-197 1328.6,-203 1328.6,-203 1328.6,-219 1328.6,-219 1328.6,-225 1322.6,-231 1316.6,-231"/>
<text text-anchor="start" x="1282.6" y="-220.2" font-family="TeX Gyre Termes" font-size="11.00">Fallback</text>
<text text-anchor="start" x="1287.6" y="-209.2" font-family="TeX Gyre Termes" font-size="11.00">sets </text>
<text text-anchor="start" x="1308.6" y="-209.2" font-family="TeX Gyre Termes" font-style="italic" font-size="11.00">F</text>
<text text-anchor="start" x="1286.1" y="-196.8" font-family="TeX Gyre Termes" font-size="9.00" fill="#3a3a3a">by mode</text>
</g>
<!-- quality_gate&#45;&gt;adapt_prompts:pick_fallback_sets -->
<g id="edge16" class="edge">
<title>quality_gate&#45;&gt;adapt_prompts:pick_fallback_sets</title>
<path fill="none" stroke="#111111" stroke-width="0.75" stroke-dasharray="5,2" d="M1197.84,-211C1219.59,-211 1247.67,-211 1268.98,-211"/>
<polygon fill="#111111" stroke="#111111" stroke-width="0.75" points="1274.52,-211 1269.02,-213.48 1271.77,-211 1269.02,-211 1269.02,-211 1269.02,-211 1271.77,-211 1269.02,-208.53 1274.52,-211 1274.52,-211"/>
<text text-anchor="start" x="1207.1" y="-214.4" font-family="TeX Gyre Termes" font-style="italic" font-size="9.50">fail </text>
<text text-anchor="start" x="1223.1" y="-214.4" font-family="TeX Gyre Termes Math" font-style="italic" font-size="9.50">∧</text>
<text text-anchor="start" x="1230.1" y="-214.4" font-family="TeX Gyre Termes" font-style="italic" font-size="9.50"> </text>
<text text-anchor="start" x="1233.1" y="-214.4" font-family="TeX Gyre Termes" font-style="italic" font-size="9.50">t</text>
<text text-anchor="start" x="1237.1" y="-214.4" font-family="TeX Gyre Termes" font-style="italic" font-size="9.50"> &lt; </text>
<text text-anchor="start" x="1249.1" y="-214.4" font-family="TeX Gyre Termes" font-style="italic" font-size="9.50">T</text>
</g>
<!-- restore_full_res -->
<g id="node17" class="node">
<title>restore_full_res</title>
<path fill="none" stroke="#111111" stroke-width="0.8" d="M1318.6,-108C1318.6,-108 1284.6,-108 1284.6,-108 1278.6,-108 1272.6,-102 1272.6,-96 1272.6,-96 1272.6,-70 1272.6,-70 1272.6,-64 1278.6,-58 1284.6,-58 1284.6,-58 1318.6,-58 1318.6,-58 1324.6,-58 1330.6,-64 1330.6,-70 1330.6,-70 1330.6,-96 1330.6,-96 1330.6,-102 1324.6,-108 1318.6,-108"/>
<text text-anchor="start" x="1284.6" y="-96.2" font-family="TeX Gyre Termes" font-size="11.00">Restore</text>
<text text-anchor="start" x="1279.6" y="-84.2" font-family="TeX Gyre Termes" font-size="11.00">resolution</text>
<text text-anchor="start" x="1279.6" y="-72.8" font-family="TeX Gyre Termes" font-size="9.00" fill="#3a3a3a">upsample </text>
<text text-anchor="start" x="1316.6" y="-72.8" font-family="TeX Gyre Termes" font-style="italic" font-size="9.00" fill="#3a3a3a">K</text>
<text text-anchor="start" x="1282.1" y="-63.8" font-family="TeX Gyre Termes" font-size="9.00" fill="#3a3a3a">to size of </text>
<text text-anchor="start" x="1317.1" y="-63.8" font-family="TeX Gyre Termes" font-style="italic" font-size="9.00" fill="#3a3a3a">I</text>
</g>
<!-- quality_gate&#45;&gt;restore_full_res -->
<g id="edge17" class="edge">
<title>quality_gate&#45;&gt;restore_full_res</title>
<path fill="none" stroke="#111111" stroke-width="0.75" stroke-dasharray="5,2" d="M1185.73,-190.72C1208.42,-169.44 1244.28,-135.81 1269.9,-111.79"/>
<polygon fill="#111111" stroke="#111111" stroke-width="0.75" points="1273.92,-108.02 1271.6,-113.59 1271.91,-109.9 1269.91,-111.78 1269.91,-111.78 1269.91,-111.78 1271.91,-109.9 1268.21,-109.98 1273.92,-108.02 1273.92,-108.02"/>
<text text-anchor="start" x="1205.6" y="-172.4" font-family="TeX Gyre Termes" font-style="italic" font-size="9.50">pass </text>
<text text-anchor="start" x="1224.6" y="-172.4" font-family="TeX Gyre Termes Math" font-style="italic" font-size="9.50">∨</text>
<text text-anchor="start" x="1231.6" y="-172.4" font-family="TeX Gyre Termes" font-style="italic" font-size="9.50"> </text>
<text text-anchor="start" x="1234.6" y="-172.4" font-family="TeX Gyre Termes" font-style="italic" font-size="9.50">t</text>
<text text-anchor="start" x="1238.6" y="-172.4" font-family="TeX Gyre Termes" font-style="italic" font-size="9.50"> = </text>
<text text-anchor="start" x="1250.6" y="-172.4" font-family="TeX Gyre Termes" font-style="italic" font-size="9.50">T</text>
</g>
<!-- adapt_prompts:claude_agent_sdk_query -->
<g id="node14" class="node">
<title>adapt_prompts:claude_agent_sdk_query</title>
<path fill="#c4c4c4" stroke="#111111" stroke-width="0.8" d="M1457.6,-218C1457.6,-218 1395.6,-218 1395.6,-218 1389.6,-218 1383.6,-212 1383.6,-206 1383.6,-206 1383.6,-178 1383.6,-178 1383.6,-172 1389.6,-166 1395.6,-166 1395.6,-166 1457.6,-166 1457.6,-166 1463.6,-166 1469.6,-172 1469.6,-178 1469.6,-178 1469.6,-206 1469.6,-206 1469.6,-212 1463.6,-218 1457.6,-218"/>
<text text-anchor="start" x="1397.6" y="-206.2" font-family="TeX Gyre Termes" font-size="11.00">LLM prompt</text>
<text text-anchor="start" x="1409.1" y="-194.2" font-family="TeX Gyre Termes" font-size="11.00">revision</text>
<text text-anchor="start" x="1390.6" y="-181.8" font-family="TeX Gyre Termes" font-size="9.00" fill="#3a3a3a">Claude Agent SDK,</text>
<text text-anchor="start" x="1411.6" y="-171.8" font-family="TeX Gyre Termes" font-size="9.00" fill="#3a3a3a">one turn</text>
</g>
<!-- adapt_prompts:pick_fallback_sets&#45;&gt;adapt_prompts:claude_agent_sdk_query -->
<g id="edge18" class="edge">
<title>adapt_prompts:pick_fallback_sets&#45;&gt;adapt_prompts:claude_agent_sdk_query</title>
<path fill="none" stroke="#111111" stroke-width="0.75" stroke-dasharray="5,2" d="M1328.69,-206.97C1343.01,-204.76 1361.21,-201.95 1377.96,-199.36"/>
<polygon fill="#111111" stroke="#111111" stroke-width="0.75" points="1383.58,-198.49 1378.53,-201.78 1380.87,-198.91 1378.15,-199.33 1378.15,-199.33 1378.15,-199.33 1380.87,-198.91 1377.77,-196.88 1383.58,-198.49 1383.58,-198.49"/>
<text text-anchor="start" x="1338.6" y="-208.8" font-family="Nimbus Mono PS" font-style="italic" font-size="9.00">use_llm</text>
</g>
<!-- adapt_prompts:cycle_fallback_set -->
<g id="node15" class="node">
<title>adapt_prompts:cycle_fallback_set</title>
<path fill="none" stroke="#111111" stroke-width="0.8" d="M1598.6,-256C1598.6,-256 1535.6,-256 1535.6,-256 1529.6,-256 1523.6,-250 1523.6,-244 1523.6,-244 1523.6,-226 1523.6,-226 1523.6,-220 1529.6,-214 1535.6,-214 1535.6,-214 1598.6,-214 1598.6,-214 1604.6,-214 1610.6,-220 1610.6,-226 1610.6,-226 1610.6,-244 1610.6,-244 1610.6,-250 1604.6,-256 1598.6,-256"/>
<text text-anchor="start" x="1537.1" y="-244.2" font-family="TeX Gyre Termes" font-size="11.00">Deterministic</text>
<text text-anchor="start" x="1549.6" y="-232.2" font-family="TeX Gyre Termes" font-size="11.00">fallback</text>
<text text-anchor="start" x="1531.1" y="-220.8" font-family="TeX Gyre Termes" font-style="italic" font-size="9.00" fill="#3a3a3a">F</text>
<text text-anchor="start" x="1537.1" y="-220.8" font-family="TeX Gyre Termes" font-size="9.00" fill="#3a3a3a">[min(</text>
<text text-anchor="start" x="1557.1" y="-220.8" font-family="TeX Gyre Termes" font-style="italic" font-size="9.00" fill="#3a3a3a">t</text>
<text text-anchor="start" x="1560.1" y="-220.8" font-family="TeX Gyre Termes Math" font-size="9.00" fill="#3a3a3a">−</text>
<text text-anchor="start" x="1567.1" y="-220.8" font-family="TeX Gyre Termes" font-size="9.00" fill="#3a3a3a">1, |</text>
<text text-anchor="start" x="1578.1" y="-220.8" font-family="TeX Gyre Termes" font-style="italic" font-size="9.00" fill="#3a3a3a">F</text>
<text text-anchor="start" x="1584.1" y="-220.8" font-family="TeX Gyre Termes" font-size="9.00" fill="#3a3a3a">|</text>
<text text-anchor="start" x="1586.1" y="-220.8" font-family="TeX Gyre Termes Math" font-size="9.00" fill="#3a3a3a">−</text>
<text text-anchor="start" x="1593.1" y="-220.8" font-family="TeX Gyre Termes" font-size="9.00" fill="#3a3a3a">1)]</text>
</g>
<!-- adapt_prompts:pick_fallback_sets&#45;&gt;adapt_prompts:cycle_fallback_set -->
<g id="edge19" class="edge">
<title>adapt_prompts:pick_fallback_sets&#45;&gt;adapt_prompts:cycle_fallback_set</title>
<path fill="none" stroke="#111111" stroke-width="0.75" stroke-dasharray="5,2" d="M1328.93,-216.24C1332.18,-216.85 1335.47,-217.45 1338.6,-218 1358.54,-221.49 1363.48,-222.8 1383.6,-225 1425.22,-229.56 1435.8,-228.72 1477.6,-231 1490.64,-231.71 1504.76,-232.39 1517.81,-232.98"/>
<polygon fill="#111111" stroke="#111111" stroke-width="0.75" points="1523.33,-233.23 1517.73,-235.45 1520.58,-233.1 1517.84,-232.98 1517.84,-232.98 1517.84,-232.98 1520.58,-233.1 1517.95,-230.51 1523.33,-233.23 1523.33,-233.23"/>
<text text-anchor="start" x="1404.6" y="-233.4" font-family="TeX Gyre Termes" font-style="italic" font-size="9.50">¬</text>
<text text-anchor="start" x="1411.6" y="-233.4" font-family="Nimbus Mono PS" font-style="italic" font-size="9.00">use_llm</text>
</g>
<!-- adapt_prompts:claude_agent_sdk_query&#45;&gt;adapt_prompts:cycle_fallback_set -->
<g id="edge21" class="edge">
<title>adapt_prompts:claude_agent_sdk_query&#45;&gt;adapt_prompts:cycle_fallback_set</title>
<path fill="none" stroke="#111111" stroke-width="0.75" stroke-dasharray="5,2" d="M1469.91,-205.14C1485.2,-209.88 1502.58,-215.28 1518.31,-220.16"/>
<polygon fill="#111111" stroke="#111111" stroke-width="0.75" points="1523.58,-221.8 1517.59,-222.53 1520.95,-220.98 1518.32,-220.17 1518.32,-220.17 1518.32,-220.17 1520.95,-220.98 1519.06,-217.8 1523.58,-221.8 1523.58,-221.8"/>
<text text-anchor="start" x="1477.6" y="-221.4" font-family="TeX Gyre Termes" font-style="italic" font-size="9.50">exception</text>
</g>
<!-- adapt_prompts:__end__ -->
<g id="node16" class="node">
<title>adapt_prompts:__end__</title>
<ellipse fill="black" stroke="#111111" stroke-width="0.8" cx="1710.54" cy="-193" rx="2.52" ry="2.52"/>
</g>
<!-- adapt_prompts:claude_agent_sdk_query&#45;&gt;adapt_prompts:__end__ -->
<g id="edge20" class="edge">
<title>adapt_prompts:claude_agent_sdk_query&#45;&gt;adapt_prompts:__end__</title>
<path fill="none" stroke="#111111" stroke-width="0.75" stroke-dasharray="5,2" d="M1469.81,-192.15C1538.36,-192.39 1669.53,-192.86 1702.09,-192.97"/>
<polygon fill="#111111" stroke="#111111" stroke-width="0.75" points="1707.71,-192.99 1702.21,-195.45 1704.96,-192.98 1702.21,-192.97 1702.21,-192.97 1702.21,-192.97 1704.96,-192.98 1702.22,-190.5 1707.71,-192.99 1707.71,-192.99"/>
<text text-anchor="start" x="1546.1" y="-195.4" font-family="TeX Gyre Termes" font-style="italic" font-size="9.50">valid reply</text>
</g>
<!-- adapt_prompts:cycle_fallback_set&#45;&gt;adapt_prompts:__end__ -->
<g id="edge22" class="edge">
<title>adapt_prompts:cycle_fallback_set&#45;&gt;adapt_prompts:__end__</title>
<path fill="none" stroke="#111111" stroke-width="0.75" d="M1610.92,-222.28C1643.65,-212.57 1685.87,-200.03 1702.43,-195.11"/>
<polygon fill="#111111" stroke="#111111" stroke-width="0.75" points="1707.85,-193.5 1703.29,-197.44 1705.22,-194.28 1702.58,-195.07 1702.58,-195.07 1702.58,-195.07 1705.22,-194.28 1701.88,-192.69 1707.85,-193.5 1707.85,-193.5"/>
</g>
<!-- adapt_prompts:__end__&#45;&gt;sam3_segment:select_branch -->
<g id="edge23" class="edge">
<title>adapt_prompts:__end__&#45;&gt;sam3_segment:select_branch</title>
<path fill="none" stroke="#111111" d="M1708.32,-194.32C1700.54,-202.61 1656.9,-247.53 1610.6,-263 1156.59,-414.66 1011.58,-292.8 533.6,-267 458.26,-262.93 429.53,-289.43 364.6,-251 358.91,-247.63 354.56,-241.82 351.46,-236.36"/>
<polygon fill="#111111" stroke="#111111" points="348.78,-231.12 353.49,-234.89 350.03,-233.57 351.28,-236.01 351.28,-236.01 351.28,-236.01 350.03,-233.57 349.08,-237.14 348.78,-231.12 348.78,-231.12"/>
<text text-anchor="start" x="997.6" y="-328.6" font-family="TeX Gyre Termes" font-style="italic" font-size="10.50">P</text>
<text text-anchor="start" x="1004.6" y="-328.6" font-family="TeX Gyre Termes" font-style="italic" baseline-shift="sub" font-size="10.50">t</text>
<text text-anchor="start" x="1007.6" y="-328.6" font-family="TeX Gyre Termes" baseline-shift="sub" font-size="10.50">+1</text>
</g>
<!-- dilate_mask -->
<g id="node18" class="node">
<title>dilate_mask</title>
<path fill="none" stroke="#111111" stroke-width="0.8" d="M1442.1,-101.5C1442.1,-101.5 1411.1,-101.5 1411.1,-101.5 1405.1,-101.5 1399.1,-95.5 1399.1,-89.5 1399.1,-89.5 1399.1,-76.5 1399.1,-76.5 1399.1,-70.5 1405.1,-64.5 1411.1,-64.5 1411.1,-64.5 1442.1,-64.5 1442.1,-64.5 1448.1,-64.5 1454.1,-70.5 1454.1,-76.5 1454.1,-76.5 1454.1,-89.5 1454.1,-89.5 1454.1,-95.5 1448.1,-101.5 1442.1,-101.5"/>
<text text-anchor="start" x="1413.1" y="-89.2" font-family="TeX Gyre Termes" font-size="11.00">Dilate</text>
<text text-anchor="start" x="1416.1" y="-77.8" font-family="TeX Gyre Termes" font-size="9.00" fill="#3a3a3a">radius</text>
<text text-anchor="start" x="1406.6" y="-69.6" font-family="Nimbus Mono PS" font-size="8.00" fill="#3a3a3a">dilate_px</text>
</g>
<!-- restore_full_res&#45;&gt;dilate_mask -->
<g id="edge24" class="edge">
<title>restore_full_res&#45;&gt;dilate_mask</title>
<path fill="none" stroke="#111111" stroke-width="0.75" d="M1330.82,-83C1349.33,-83 1373.6,-83 1392.95,-83"/>
<polygon fill="#111111" stroke="#111111" stroke-width="0.75" points="1398.78,-83 1393.28,-85.48 1396.03,-83 1393.28,-83 1393.28,-83 1393.28,-83 1396.03,-83 1393.28,-80.53 1398.78,-83 1398.78,-83"/>
</g>
<!-- save_result -->
<g id="node19" class="node">
<title>save_result</title>
<path fill="none" stroke="#111111" stroke-width="0.8" d="M1587.6,-98C1587.6,-98 1546.6,-98 1546.6,-98 1541.6,-98 1536.6,-93 1536.6,-88 1536.6,-88 1536.6,-78 1536.6,-78 1536.6,-73 1541.6,-68 1546.6,-68 1546.6,-68 1587.6,-68 1587.6,-68 1592.6,-68 1597.6,-73 1597.6,-78 1597.6,-78 1597.6,-88 1597.6,-88 1597.6,-93 1592.6,-98 1587.6,-98"/>
<text text-anchor="start" x="1556.6" y="-86.2" font-family="TeX Gyre Termes" font-size="11.00">Save</text>
<text text-anchor="start" x="1544.1" y="-74.8" font-family="TeX Gyre Termes" font-size="9.00" fill="#3a3a3a">black out ¬</text>
<text text-anchor="start" x="1584.1" y="-74.8" font-family="TeX Gyre Termes" font-style="italic" font-size="9.00" fill="#3a3a3a">K</text>
</g>
<!-- dilate_mask&#45;&gt;save_result -->
<g id="edge25" class="edge">
<title>dilate_mask&#45;&gt;save_result</title>
<path fill="none" stroke="#111111" stroke-width="0.75" d="M1454.31,-83C1475.99,-83 1506.77,-83 1530.54,-83"/>
<polygon fill="#111111" stroke="#111111" stroke-width="0.75" points="1536.11,-83 1530.61,-85.48 1533.36,-83 1530.61,-83 1530.61,-83 1530.61,-83 1533.36,-83 1530.61,-80.53 1536.11,-83 1536.11,-83"/>
</g>
<!-- __end__ -->
<g id="node21" class="node">
<title>__end__</title>
<polygon fill="white" stroke="#111111" stroke-width="0.8" points="1793.42,-111 1661.58,-111 1627.66,-55 1759.51,-55 1793.42,-111"/>
<text text-anchor="start" x="1677.54" y="-86.2" font-family="TeX Gyre Termes" font-size="11.00">Masked image</text>
<text text-anchor="start" x="1683.54" y="-75.2" font-family="TeX Gyre Termes" font-size="11.00">and mask </text>
<text text-anchor="start" x="1729.54" y="-75.2" font-family="TeX Gyre Termes" font-style="italic" font-size="11.00">K</text>
</g>
<!-- save_result&#45;&gt;__end__ -->
<g id="edge26" class="edge">
<title>save_result&#45;&gt;__end__</title>
<path fill="none" stroke="#111111" stroke-width="0.75" d="M1597.75,-83C1609.77,-83 1624.2,-83 1638.64,-83"/>
<polygon fill="#111111" stroke="#111111" stroke-width="0.75" points="1644.39,-83 1638.89,-85.48 1641.64,-83 1638.89,-83 1638.89,-83 1638.89,-83 1641.64,-83 1638.89,-80.53 1644.39,-83 1644.39,-83"/>
</g>
<!-- __start__ -->
<g id="node20" class="node">
<title>__start__</title>
<polygon fill="white" stroke="#111111" stroke-width="0.8" points="101.4,-251 20.91,-251 0.2,-195 80.7,-195 101.4,-251"/>
<text text-anchor="start" x="39.8" y="-226.2" font-family="TeX Gyre Termes" font-size="11.00">Input</text>
<text text-anchor="start" x="33.8" y="-215.2" font-family="TeX Gyre Termes" font-size="11.00">image </text>
<text text-anchor="start" x="64.8" y="-215.2" font-family="TeX Gyre Termes" font-style="italic" font-size="11.00">I</text>
</g>
<!-- __start__&#45;&gt;preprocess -->
<g id="edge1" class="edge">
<title>__start__&#45;&gt;preprocess</title>
<path fill="none" stroke="#111111" stroke-width="0.75" d="M91.21,-223C100.81,-223 111.09,-223 120.69,-223"/>
<polygon fill="#111111" stroke="#111111" stroke-width="0.75" points="126.26,-223 120.76,-225.48 123.51,-223 120.76,-223 120.76,-223 120.76,-223 123.51,-223 120.76,-220.53 126.26,-223 126.26,-223"/>
</g>
</g>
</svg>
